<?xml version="1.0" encoding="utf-8"?>
<svg viewBox="-0.705 0.75 42.928 43.018" width="42.928px" height="43.018px" xmlns="http://www.w3.org/2000/svg" xmlns:bx="https://boxy-svg.com">
  <path d="M 16.829 21.047 C 18.719 24.052 20.196 27.32 21.983 30.394 C 23.269 32.603 24.667 34.76 26.197 36.805 C 27.587 38.667 29.614 39.711 32.113 40.448 C 29.556 42.162 26.983 43.189 24.237 43.545 C 15.931 44.621 9.019 41.795 3.824 35.26 C -1.036 29.15 -1.847 22.197 0.734 14.85 C 0.87 14.458 1.491 14.01 1.909 13.981 C 8.171 13.541 13.383 15.565 16.829 21.047 Z M 41.283 15.766 C 42.11 18.284 42.242 20.861 42.222 23.481 C 42.218 24.49 41.519 24.461 40.948 24.602 C 35.058 26.049 29.879 24.64 25.507 20.45 C 22.777 17.837 20.2 15.063 17.528 12.388 C 14.967 9.826 12.076 7.83 8.407 7.275 C 7.65 7.161 6.881 7.136 5.871 7.049 C 9.193 3.643 12.978 1.608 17.457 0.966 C 27.856 -0.523 38.023 5.82 41.283 15.766 Z" id="Combined-Shape" fill="#0F6DB8" bx:origin="-0.000002 0.5" />
  <path d="M42,27.7464148 C41.2190147,31.3568321 39.5009507,34.4793695 36.9907519,37.1613938 C34.9179775,39.376327 34.4564391,39.4652717 31.7084702,38.0937341 C29.1798617,36.8319301 27.0666379,35.0456682 25.6376837,32.5425858 C24.0368194,29.7374073 22.4071737,26.9435442 20.9522904,24.0604733 C19.481331,21.145035 17.7246327,18.4724841 15.452204,16.1470279 C13.0781331,13.7178907 10.126102,12.6647646 6.84295592,12.4450344 C5.66032844,12.3660894 4.46810717,12.4324032 3,12.4324032 C3.74235091,11.219545 4.27286085,10.2295749 4.9366465,9.34223326 C5.13630078,9.07592551 5.70829732,8.99619107 6.10812446,9 C10.1997407,9.03908452 13.5007779,10.9721841 16.352204,13.7134172 C19.3905791,16.6343816 22.1569576,19.8529687 25.2585998,22.6986723 C28.3387208,25.5249028 31.9244598,27.627471 36.174503,28.0098279 C38.0310285,28.1769281 39.9300778,27.8558851 42,27.7464148" id="Fill-13" fill="#EB5723" transform="matrix(1, 0, 0, 1, -0.704904, 0.120003)" />
</svg>