<?xml version="1.0" encoding="utf-8"?>
<svg viewBox="0 0 360 100" width="360px" height="100px" xmlns="http://www.w3.org/2000/svg">
  <path d="M 0 67.283 L 12.002 66.227 C 12.571 71.065 13.893 75.033 15.971 78.133 C 18.047 81.234 21.271 83.741 25.645 85.653 C 30.017 87.566 34.935 88.522 40.4 88.522 C 45.254 88.522 49.54 87.797 53.256 86.346 C 56.972 84.895 59.738 82.905 61.551 80.376 C 63.366 77.847 64.273 75.089 64.273 72.097 C 64.273 69.063 63.4 66.414 61.651 64.149 C 59.901 61.884 57.016 59.982 52.993 58.443 C 50.413 57.431 44.708 55.86 35.875 53.727 C 27.044 51.593 20.857 49.581 17.314 47.691 C 12.723 45.272 9.302 42.27 7.05 38.687 C 4.799 35.103 3.673 31.09 3.673 26.649 C 3.673 21.767 5.05 17.205 7.805 12.961 C 10.559 8.718 14.582 5.496 19.872 3.297 C 25.163 1.099 31.045 0 37.515 0 C 44.642 0 50.927 1.154 56.371 3.463 C 61.814 5.772 66.001 9.169 68.93 13.654 C 71.861 18.139 73.433 23.219 73.652 28.891 L 61.454 29.815 C 60.798 23.702 58.578 19.085 54.796 15.963 C 51.015 12.84 45.429 11.279 38.039 11.279 C 30.344 11.279 24.736 12.698 21.217 15.534 C 17.697 18.37 15.937 21.789 15.937 25.791 C 15.937 29.266 17.184 32.124 19.675 34.366 C 22.124 36.609 28.518 38.907 38.86 41.26 C 49.199 43.613 56.295 45.669 60.142 47.427 C 65.738 50.022 69.87 53.309 72.538 57.289 C 75.204 61.269 76.538 65.852 76.538 71.043 C 76.538 76.187 75.073 81.035 72.144 85.588 C 69.215 90.139 65.006 93.679 59.519 96.208 C 54.031 98.737 47.856 100 40.992 100 C 32.29 100 24.999 98.725 19.119 96.174 C 13.237 93.625 8.624 89.787 5.281 84.664 C 1.935 79.54 0.176 73.746 0 67.283 Z" fill="#0f6db8"/>
  <path d="M 93.919 98.352 L 93.919 1.648 L 130.187 1.648 C 136.57 1.648 141.446 1.956 144.813 2.572 C 149.535 3.363 153.491 4.87 156.683 7.091 C 159.875 9.311 162.444 12.422 164.39 16.424 C 166.335 20.426 167.309 24.823 167.309 29.617 C 167.309 37.841 164.707 44.799 159.504 50.495 C 154.3 56.189 144.901 59.037 131.302 59.037 L 106.641 59.037 L 106.641 98.352 L 93.919 98.352 Z M 106.641 47.625 L 131.499 47.625 C 139.718 47.625 145.556 46.086 149.01 43.008 C 152.464 39.929 154.192 35.598 154.192 30.013 C 154.192 25.967 153.174 22.504 151.142 19.624 C 149.109 16.743 146.431 14.841 143.107 13.918 C 140.965 13.346 137.008 13.061 131.236 13.061 L 106.641 13.061 L 106.641 47.625 Z" fill="#0f6db8"/>
  <path d="M 228.651 98.315 C 255.154 98.315 276.719 76.626 276.719 49.969 C 276.719 23.315 255.154 1.623 228.651 1.623 C 202.148 1.623 180.582 23.315 180.582 49.969 C 180.582 76.626 202.148 98.315 228.651 98.315 Z M 228.651 11.292 C 249.851 11.292 267.106 28.647 267.106 49.969 C 267.106 71.294 249.851 88.646 228.651 88.646 C 207.45 88.646 190.196 71.292 190.196 49.969 C 190.196 28.647 207.45 11.292 228.651 11.292 Z M 223.938 50.913 C 223.967 51.057 224.014 51.178 224.06 51.314 C 224.103 51.482 224.145 51.66 224.209 51.821 C 224.278 51.974 224.366 52.118 224.446 52.257 C 224.513 52.391 224.567 52.532 224.658 52.651 C 224.817 52.895 225.001 53.112 225.201 53.322 C 225.223 53.346 225.236 53.37 225.246 53.394 L 244.474 72.732 C 246.358 74.614 249.395 74.614 251.277 72.732 C 253.151 70.836 253.151 67.779 251.277 65.886 L 233.458 47.969 L 233.458 28.518 C 233.458 25.847 231.303 23.683 228.651 23.683 C 226 23.683 223.844 25.847 223.844 28.518 L 223.844 49.968 C 223.844 50.288 223.878 50.601 223.938 50.913 Z" fill="#eb5723"/>
  <path d="M 315.373 98.29 L 315.373 13.009 L 283.7 13.009 L 283.7 1.599 L 359.9 1.599 L 359.9 13.009 L 328.095 13.009 L 328.095 98.29 L 315.373 98.29 Z" fill="#0f6db8"/>
</svg>